<svg version="1.2" xmlns="http://www.w3.org/2000/svg" viewBox="0 0 517 574" width="517" height="574">
	<style>
		.s0 { fill: #3a3f46 } 
	</style>
	<g id="Layer 1">
		<g id="&lt;Group&gt;">
			<path id="&lt;Path&gt;" class="s0" d="m106.3 210.28l153.92 261.61 33.57-57.06-120.81-204.55z"/>
			<path id="&lt;Path&gt;" class="s0" d="m493.79 75.72c-1.54-0.88-18.15-10.24-47.88-20.72l-10.19 17.59-122.19 210.9-84.2-143.39h-66.33l117.44 199.62 33.04 56.15q0.17-0.36 0.24-0.89l0.3 0.51 164.95-283.31 19.62-33.69z"/>
			<path id="&lt;Compound Path&gt;" class="s0" d="m402.43 90.82l4.04-6.97c-16.06-6.97-32.95-12.07-50.33-15.13-32.02-5.62-65.3-8.47-98.93-8.47-89.58 0-156.31 20.33-190.03 33.43l6.2 6.19c34.06-12.87 98.32-31.62 183.83-31.62 33.16 0 65.99 2.81 97.55 8.35 16.45 2.89 32.45 7.69 47.67 14.22zm52.7 101.8v80.54c0 51.77-28.64 103.23-85.1 152.95-35.78 31.5-74.92 55.03-99.22 68.23v9.09c24.22-12.93 66.23-37.62 104.5-71.32 58.27-51.3 87.82-104.78 87.82-158.95v-94.28zm-395.84 80.54v-148.89l-8-8v156.89c0 54.17 29.54 107.65 87.81 158.95 38.27 33.7 80.28 58.39 104.5 71.32v-9.09c-24.3-13.2-63.44-36.73-99.21-68.23-56.47-49.72-85.1-101.18-85.1-152.95z"/>
			<path id="&lt;Path&gt;" class="s0" d="m479.13 151.4v121.76c0 145.29-191.82 240.95-221.92 255.05-30.11-14.1-221.92-109.76-221.92-255.05v-182.96c20.14-10.06 100.5-45.95 221.92-45.95 66.5 0 120.66 10.76 159.37 22.16l10.29-17.77c-40.35-12.3-97.83-24.15-169.66-24.15-146.17 0-233.1 49.08-236.73 51.17l-4.95 2.85v194.65c0 70.73 41.37 140.82 119.65 202.71 58.29 46.08 115.68 71.22 118.09 72.27l3.94 1.71 3.93-1.71c2.41-1.05 59.8-26.19 118.09-72.27 78.28-61.89 119.66-131.98 119.66-202.71v-155.7z"/>
		</g>
	</g>
</svg>